<mxfile host="Electron" modified="2024-04-24T00:45:08.700Z" agent="Mozilla/5.0 (Windows NT 10.0; Win64; x64) AppleWebKit/537.36 (KHTML, like Gecko) draw.io/24.0.4 Chrome/120.0.6099.109 Electron/28.1.0 Safari/537.36" etag="OcFdCJn2W1NMdxmXHUb6" version="24.0.4" type="device">
  <diagram name="PÃ¡gina-1" id="6KKKKZAk7pw4pZNN8Spq">
    <mxGraphModel dx="2074" dy="836" grid="1" gridSize="10" guides="1" tooltips="1" connect="1" arrows="1" fold="1" page="1" pageScale="1" pageWidth="827" pageHeight="1169" background="#ffffff" math="0" shadow="0">
      <root>
        <mxCell id="0" />
        <mxCell id="1" parent="0" />
        <mxCell id="PWbC6GFVs9YUKvNQ46mf-4" style="edgeStyle=orthogonalEdgeStyle;rounded=0;sketch=1;hachureGap=4;jiggle=2;curveFitting=1;orthogonalLoop=1;jettySize=auto;html=1;fontFamily=Architects Daughter;fontSource=https%3A%2F%2Ffonts.googleapis.com%2Fcss%3Ffamily%3DArchitects%2BDaughter;strokeWidth=3;strokeColor=#000000;" edge="1" parent="1" source="PWbC6GFVs9YUKvNQ46mf-1" target="PWbC6GFVs9YUKvNQ46mf-2">
          <mxGeometry relative="1" as="geometry" />
        </mxCell>
        <mxCell id="PWbC6GFVs9YUKvNQ46mf-1" value="GET" style="rounded=1;whiteSpace=wrap;html=1;labelBackgroundColor=none;fillColor=#FAE5C7;strokeColor=#0F8B8D;fontColor=#143642;sketch=1;curveFitting=1;jiggle=2;fontStyle=1;fontSize=16;" vertex="1" parent="1">
          <mxGeometry x="40" y="140" width="120" height="60" as="geometry" />
        </mxCell>
        <mxCell id="PWbC6GFVs9YUKvNQ46mf-5" style="edgeStyle=orthogonalEdgeStyle;rounded=0;sketch=1;hachureGap=4;jiggle=2;curveFitting=1;orthogonalLoop=1;jettySize=auto;html=1;fontFamily=Architects Daughter;fontSource=https%3A%2F%2Ffonts.googleapis.com%2Fcss%3Ffamily%3DArchitects%2BDaughter;strokeWidth=3;strokeColor=#000000;" edge="1" parent="1" source="PWbC6GFVs9YUKvNQ46mf-2" target="PWbC6GFVs9YUKvNQ46mf-3">
          <mxGeometry relative="1" as="geometry" />
        </mxCell>
        <mxCell id="PWbC6GFVs9YUKvNQ46mf-2" value="EF Core" style="rounded=1;whiteSpace=wrap;html=1;labelBackgroundColor=none;fillColor=#008a00;strokeColor=#005700;fontColor=#0D0D0D;sketch=1;curveFitting=1;jiggle=2;fontStyle=1;fontSize=16;" vertex="1" parent="1">
          <mxGeometry x="300" y="140" width="200" height="60" as="geometry" />
        </mxCell>
        <mxCell id="PWbC6GFVs9YUKvNQ46mf-3" value="Activities" style="rounded=1;whiteSpace=wrap;html=1;labelBackgroundColor=none;fillColor=#0050ef;strokeColor=#001DBC;fontColor=#0D0D0D;sketch=1;curveFitting=1;jiggle=2;fontStyle=1;fontSize=16;" vertex="1" parent="1">
          <mxGeometry x="640" y="140" width="160" height="60" as="geometry" />
        </mxCell>
        <mxCell id="PWbC6GFVs9YUKvNQ46mf-6" style="edgeStyle=orthogonalEdgeStyle;rounded=0;sketch=1;hachureGap=4;jiggle=2;curveFitting=1;orthogonalLoop=1;jettySize=auto;html=1;fontFamily=Architects Daughter;fontSource=https%3A%2F%2Ffonts.googleapis.com%2Fcss%3Ffamily%3DArchitects%2BDaughter;strokeWidth=3;strokeColor=#000000;" edge="1" parent="1" source="PWbC6GFVs9YUKvNQ46mf-7" target="PWbC6GFVs9YUKvNQ46mf-9">
          <mxGeometry relative="1" as="geometry" />
        </mxCell>
        <mxCell id="PWbC6GFVs9YUKvNQ46mf-7" value="GET By ID" style="rounded=1;whiteSpace=wrap;html=1;labelBackgroundColor=none;fillColor=#FAE5C7;strokeColor=#0F8B8D;fontColor=#143642;sketch=1;curveFitting=1;jiggle=2;fontStyle=1;fontSize=16;" vertex="1" parent="1">
          <mxGeometry x="40" y="260" width="120" height="60" as="geometry" />
        </mxCell>
        <mxCell id="PWbC6GFVs9YUKvNQ46mf-8" style="edgeStyle=orthogonalEdgeStyle;rounded=0;sketch=1;hachureGap=4;jiggle=2;curveFitting=1;orthogonalLoop=1;jettySize=auto;html=1;fontFamily=Architects Daughter;fontSource=https%3A%2F%2Ffonts.googleapis.com%2Fcss%3Ffamily%3DArchitects%2BDaughter;strokeWidth=3;strokeColor=#000000;" edge="1" parent="1" source="PWbC6GFVs9YUKvNQ46mf-9" target="PWbC6GFVs9YUKvNQ46mf-10">
          <mxGeometry relative="1" as="geometry" />
        </mxCell>
        <mxCell id="PWbC6GFVs9YUKvNQ46mf-9" value="EF Core" style="rounded=1;whiteSpace=wrap;html=1;labelBackgroundColor=none;fillColor=#008a00;strokeColor=#005700;fontColor=#0D0D0D;sketch=1;curveFitting=1;jiggle=2;fontStyle=1;fontSize=16;" vertex="1" parent="1">
          <mxGeometry x="300" y="260" width="200" height="60" as="geometry" />
        </mxCell>
        <mxCell id="PWbC6GFVs9YUKvNQ46mf-10" value="Activities" style="rounded=1;whiteSpace=wrap;html=1;labelBackgroundColor=none;fillColor=#0050ef;strokeColor=#001DBC;fontColor=#0D0D0D;sketch=1;curveFitting=1;jiggle=2;fontStyle=1;fontSize=16;" vertex="1" parent="1">
          <mxGeometry x="640" y="260" width="160" height="60" as="geometry" />
        </mxCell>
        <mxCell id="PWbC6GFVs9YUKvNQ46mf-11" style="edgeStyle=orthogonalEdgeStyle;rounded=0;sketch=1;hachureGap=4;jiggle=2;curveFitting=1;orthogonalLoop=1;jettySize=auto;html=1;fontFamily=Architects Daughter;fontSource=https%3A%2F%2Ffonts.googleapis.com%2Fcss%3Ffamily%3DArchitects%2BDaughter;strokeWidth=3;strokeColor=#000000;" edge="1" parent="1" source="PWbC6GFVs9YUKvNQ46mf-12" target="PWbC6GFVs9YUKvNQ46mf-14">
          <mxGeometry relative="1" as="geometry" />
        </mxCell>
        <mxCell id="PWbC6GFVs9YUKvNQ46mf-12" value="POST" style="rounded=1;whiteSpace=wrap;html=1;labelBackgroundColor=none;fillColor=#FAE5C7;strokeColor=#0F8B8D;fontColor=#143642;sketch=1;curveFitting=1;jiggle=2;fontStyle=1;fontSize=16;" vertex="1" parent="1">
          <mxGeometry x="40" y="380" width="120" height="60" as="geometry" />
        </mxCell>
        <mxCell id="PWbC6GFVs9YUKvNQ46mf-13" style="edgeStyle=orthogonalEdgeStyle;rounded=0;sketch=1;hachureGap=4;jiggle=2;curveFitting=1;orthogonalLoop=1;jettySize=auto;html=1;fontFamily=Architects Daughter;fontSource=https%3A%2F%2Ffonts.googleapis.com%2Fcss%3Ffamily%3DArchitects%2BDaughter;strokeWidth=3;strokeColor=#000000;" edge="1" parent="1" source="PWbC6GFVs9YUKvNQ46mf-14" target="PWbC6GFVs9YUKvNQ46mf-15">
          <mxGeometry relative="1" as="geometry" />
        </mxCell>
        <mxCell id="PWbC6GFVs9YUKvNQ46mf-14" value="EF Core" style="rounded=1;whiteSpace=wrap;html=1;labelBackgroundColor=none;fillColor=#008a00;strokeColor=#005700;fontColor=#0D0D0D;sketch=1;curveFitting=1;jiggle=2;fontStyle=1;fontSize=16;" vertex="1" parent="1">
          <mxGeometry x="300" y="380" width="200" height="60" as="geometry" />
        </mxCell>
        <mxCell id="PWbC6GFVs9YUKvNQ46mf-15" value="Activity ID" style="rounded=1;whiteSpace=wrap;html=1;labelBackgroundColor=none;fillColor=#0050ef;strokeColor=#001DBC;fontColor=#0D0D0D;sketch=1;curveFitting=1;jiggle=2;fontStyle=1;fontSize=16;" vertex="1" parent="1">
          <mxGeometry x="640" y="380" width="160" height="60" as="geometry" />
        </mxCell>
        <mxCell id="PWbC6GFVs9YUKvNQ46mf-16" style="edgeStyle=orthogonalEdgeStyle;rounded=0;sketch=1;hachureGap=4;jiggle=2;curveFitting=1;orthogonalLoop=1;jettySize=auto;html=1;fontFamily=Architects Daughter;fontSource=https%3A%2F%2Ffonts.googleapis.com%2Fcss%3Ffamily%3DArchitects%2BDaughter;strokeWidth=3;strokeColor=#000000;" edge="1" parent="1" source="PWbC6GFVs9YUKvNQ46mf-17" target="PWbC6GFVs9YUKvNQ46mf-19">
          <mxGeometry relative="1" as="geometry" />
        </mxCell>
        <mxCell id="PWbC6GFVs9YUKvNQ46mf-17" value="PUT" style="rounded=1;whiteSpace=wrap;html=1;labelBackgroundColor=none;fillColor=#FAE5C7;strokeColor=#0F8B8D;fontColor=#143642;sketch=1;curveFitting=1;jiggle=2;fontStyle=1;fontSize=16;" vertex="1" parent="1">
          <mxGeometry x="40" y="500" width="120" height="60" as="geometry" />
        </mxCell>
        <mxCell id="PWbC6GFVs9YUKvNQ46mf-18" style="edgeStyle=orthogonalEdgeStyle;rounded=0;sketch=1;hachureGap=4;jiggle=2;curveFitting=1;orthogonalLoop=1;jettySize=auto;html=1;fontFamily=Architects Daughter;fontSource=https%3A%2F%2Ffonts.googleapis.com%2Fcss%3Ffamily%3DArchitects%2BDaughter;strokeWidth=3;strokeColor=#000000;" edge="1" parent="1" source="PWbC6GFVs9YUKvNQ46mf-19" target="PWbC6GFVs9YUKvNQ46mf-20">
          <mxGeometry relative="1" as="geometry" />
        </mxCell>
        <mxCell id="PWbC6GFVs9YUKvNQ46mf-19" value="EF Core" style="rounded=1;whiteSpace=wrap;html=1;labelBackgroundColor=none;fillColor=#008a00;strokeColor=#005700;fontColor=#0D0D0D;sketch=1;curveFitting=1;jiggle=2;fontStyle=1;fontSize=16;" vertex="1" parent="1">
          <mxGeometry x="300" y="500" width="200" height="60" as="geometry" />
        </mxCell>
        <mxCell id="PWbC6GFVs9YUKvNQ46mf-20" value="Activity ID" style="rounded=1;whiteSpace=wrap;html=1;labelBackgroundColor=none;fillColor=#0050ef;strokeColor=#001DBC;fontColor=#0D0D0D;sketch=1;curveFitting=1;jiggle=2;fontStyle=1;fontSize=16;" vertex="1" parent="1">
          <mxGeometry x="640" y="500" width="160" height="60" as="geometry" />
        </mxCell>
        <mxCell id="PWbC6GFVs9YUKvNQ46mf-21" style="edgeStyle=orthogonalEdgeStyle;rounded=0;sketch=1;hachureGap=4;jiggle=2;curveFitting=1;orthogonalLoop=1;jettySize=auto;html=1;fontFamily=Architects Daughter;fontSource=https%3A%2F%2Ffonts.googleapis.com%2Fcss%3Ffamily%3DArchitects%2BDaughter;strokeWidth=3;strokeColor=#000000;" edge="1" parent="1" source="PWbC6GFVs9YUKvNQ46mf-22" target="PWbC6GFVs9YUKvNQ46mf-24">
          <mxGeometry relative="1" as="geometry" />
        </mxCell>
        <mxCell id="PWbC6GFVs9YUKvNQ46mf-22" value="DELETE" style="rounded=1;whiteSpace=wrap;html=1;labelBackgroundColor=none;fillColor=#FAE5C7;strokeColor=#0F8B8D;fontColor=#143642;sketch=1;curveFitting=1;jiggle=2;fontStyle=1;fontSize=16;" vertex="1" parent="1">
          <mxGeometry x="40" y="620" width="120" height="60" as="geometry" />
        </mxCell>
        <mxCell id="PWbC6GFVs9YUKvNQ46mf-23" style="edgeStyle=orthogonalEdgeStyle;rounded=0;sketch=1;hachureGap=4;jiggle=2;curveFitting=1;orthogonalLoop=1;jettySize=auto;html=1;fontFamily=Architects Daughter;fontSource=https%3A%2F%2Ffonts.googleapis.com%2Fcss%3Ffamily%3DArchitects%2BDaughter;strokeWidth=3;strokeColor=#000000;" edge="1" parent="1" source="PWbC6GFVs9YUKvNQ46mf-24" target="PWbC6GFVs9YUKvNQ46mf-25">
          <mxGeometry relative="1" as="geometry" />
        </mxCell>
        <mxCell id="PWbC6GFVs9YUKvNQ46mf-24" value="EF Core" style="rounded=1;whiteSpace=wrap;html=1;labelBackgroundColor=none;fillColor=#008a00;strokeColor=#005700;fontColor=#0D0D0D;sketch=1;curveFitting=1;jiggle=2;fontStyle=1;fontSize=16;" vertex="1" parent="1">
          <mxGeometry x="300" y="620" width="200" height="60" as="geometry" />
        </mxCell>
        <mxCell id="PWbC6GFVs9YUKvNQ46mf-25" value="No content" style="rounded=1;whiteSpace=wrap;html=1;labelBackgroundColor=none;fillColor=#0050ef;strokeColor=#001DBC;fontColor=#0D0D0D;sketch=1;curveFitting=1;jiggle=2;fontStyle=1;fontSize=16;" vertex="1" parent="1">
          <mxGeometry x="640" y="620" width="160" height="60" as="geometry" />
        </mxCell>
      </root>
    </mxGraphModel>
  </diagram>
</mxfile>
